<svg id="SvgjsSvg1001" width="288" height="288" xmlns="http://www.w3.org/2000/svg" version="1.1" xmlns:xlink="http://www.w3.org/1999/xlink" xmlns:svgjs="http://svgjs.com/svgjs"><defs id="SvgjsDefs1002"></defs><g id="SvgjsG1008" transform="matrix(0.9167,0,0,0.9167,12.744900000000001,12.006445042419443)"><svg xmlns="http://www.w3.org/2000/svg" width="288" height="288" viewBox="0 0 16 16"><path fill="rgba(0,0,0,0.5)" fill-rule="evenodd" d="M1 4.27v7.47c0 .45.3.84.75.97l6.5 1.73c.16.05.34.05.5 0l6.5-1.73c.45-.13.75-.52.75-.97V4.27c0-.45-.3-.84-.75-.97l-6.5-1.74a1.4 1.4 0 0 0-.5 0L1.75 3.3c-.45.13-.75.52-.75.97zm7 9.09l-6-1.59V5l6 1.61v6.75zM2 4l2.5-.67L11 5.06l-2.5.67L2 4zm13 7.77l-6 1.59V6.61l2-.55V8.5l2-.53V5.53L15 5v6.77zm-2-7.24L6.5 2.8l2-.53L15 4l-2 .53z" class="color000 svgShape"></path></svg></g></svg>
